<svg aria-roledescription="er" role="graphics-document document" viewBox="0 0 835.0322875976562 430" style="max-width: 835.032px; background-color: white;" xmlns:xlink="http://www.w3.org/1999/xlink" xmlns="http://www.w3.org/2000/svg" width="100%" id="my-svg"><style>#my-svg{font-family:"trebuchet ms",verdana,arial,sans-serif;font-size:16px;fill:#000000;}#my-svg .error-icon{fill:#552222;}#my-svg .error-text{fill:#552222;stroke:#552222;}#my-svg .edge-thickness-normal{stroke-width:2px;}#my-svg .edge-thickness-thick{stroke-width:3.5px;}#my-svg .edge-pattern-solid{stroke-dasharray:0;}#my-svg .edge-pattern-dashed{stroke-dasharray:3;}#my-svg .edge-pattern-dotted{stroke-dasharray:2;}#my-svg .marker{fill:#000000;stroke:#000000;}#my-svg .marker.cross{stroke:#000000;}#my-svg svg{font-family:"trebuchet ms",verdana,arial,sans-serif;font-size:16px;}#my-svg .entityBox{fill:#cde498;stroke:#13540c;}#my-svg .attributeBoxOdd{fill:#ffffff;stroke:#13540c;}#my-svg .attributeBoxEven{fill:#f2f2f2;stroke:#13540c;}#my-svg .relationshipLabelBox{fill:hsl(78.1578947368, 58.4615384615%, 84.5098039216%);opacity:0.7;background-color:hsl(78.1578947368, 58.4615384615%, 84.5098039216%);}#my-svg .relationshipLabelBox rect{opacity:0.5;}#my-svg .relationshipLine{stroke:#000000;}#my-svg .entityTitleText{text-anchor:middle;font-size:18px;fill:#000000;}#my-svg #MD_PARENT_START{fill:#f5f5f5!important;stroke:#000000!important;stroke-width:1;}#my-svg #MD_PARENT_END{fill:#f5f5f5!important;stroke:#000000!important;stroke-width:1;}#my-svg :root{--mermaid-font-family:"trebuchet ms",verdana,arial,sans-serif;}</style><g/><defs><marker orient="auto" markerHeight="240" markerWidth="190" refY="7" refX="0" id="MD_PARENT_START"><path d="M 18,7 L9,13 L1,7 L9,1 Z"/></marker></defs><defs><marker orient="auto" markerHeight="28" markerWidth="20" refY="7" refX="19" id="MD_PARENT_END"><path d="M 18,7 L9,13 L1,7 L9,1 Z"/></marker></defs><defs><marker orient="auto" markerHeight="18" markerWidth="18" refY="9" refX="0" id="ONLY_ONE_START"><path d="M9,0 L9,18 M15,0 L15,18" fill="none" stroke="gray"/></marker></defs><defs><marker orient="auto" markerHeight="18" markerWidth="18" refY="9" refX="18" id="ONLY_ONE_END"><path d="M3,0 L3,18 M9,0 L9,18" fill="none" stroke="gray"/></marker></defs><defs><marker orient="auto" markerHeight="18" markerWidth="30" refY="9" refX="0" id="ZERO_OR_ONE_START"><circle r="6" cy="9" cx="21" fill="white" stroke="gray"/><path d="M9,0 L9,18" fill="none" stroke="gray"/></marker></defs><defs><marker orient="auto" markerHeight="18" markerWidth="30" refY="9" refX="30" id="ZERO_OR_ONE_END"><circle r="6" cy="9" cx="9" fill="white" stroke="gray"/><path d="M21,0 L21,18" fill="none" stroke="gray"/></marker></defs><defs><marker orient="auto" markerHeight="36" markerWidth="45" refY="18" refX="18" id="ONE_OR_MORE_START"><path d="M0,18 Q 18,0 36,18 Q 18,36 0,18 M42,9 L42,27" fill="none" stroke="gray"/></marker></defs><defs><marker orient="auto" markerHeight="36" markerWidth="45" refY="18" refX="27" id="ONE_OR_MORE_END"><path d="M3,9 L3,27 M9,18 Q27,0 45,18 Q27,36 9,18" fill="none" stroke="gray"/></marker></defs><defs><marker orient="auto" markerHeight="36" markerWidth="57" refY="18" refX="18" id="ZERO_OR_MORE_START"><circle r="6" cy="18" cx="48" fill="white" stroke="gray"/><path d="M0,18 Q18,0 36,18 Q18,36 0,18" fill="none" stroke="gray"/></marker></defs><defs><marker orient="auto" markerHeight="36" markerWidth="57" refY="18" refX="39" id="ZERO_OR_MORE_END"><circle r="6" cy="18" cx="9" fill="white" stroke="gray"/><path d="M21,18 Q39,0 57,18 Q39,36 21,18" fill="none" stroke="gray"/></marker></defs><path style="stroke: gray; fill: none;" marker-start="url(#ZERO_OR_ONE_START)" marker-end="url(#ONLY_ONE_END)" d="M404.3819046020508,106.71862562569491L352.3260663350423,122.93218802141241C300.2702280680339,139.14575041712996,196.15855153401694,171.57287520856497,144.10271326700845,203.45310427094918C92.046875,235.33333333333334,92.046875,266.6666666666667,92.046875,282.3333333333333L92.046875,298" class="er relationshipLine"/><path style="stroke: gray; fill: none;" marker-start="url(#ZERO_OR_MORE_START)" marker-end="url(#ZERO_OR_MORE_END)" d="M404.3819046020508,119.99822775727122L377.5213966369629,133.99852313105936C350.660888671875,147.9988185048475,296.9398727416992,175.99940925242376,281.8723945617676,200.06309004287854C266.80491638183594,224.12677083333332,290.39097595214844,244.25354166666668,302.1840057373047,254.31692708333333L313.97703552246094,264.3803125" class="er relationshipLine"/><path style="stroke: gray; fill: none;" marker-start="url(#ZERO_OR_MORE_START)" marker-end="url(#ZERO_OR_MORE_END)" d="M404.3819046020508,146.50871255755956L394.1880633036296,156.0905937979663C383.9942220052083,165.67247503837305,363.6065394083659,184.8362375191865,356.667906443278,202.7514520929266C349.7292734781901,220.66666666666666,356.23969014485675,237.33333333333334,359.4948984781901,245.66666666666666L362.75010681152344,254" class="er relationshipLine"/><path style="stroke: gray; fill: none;" marker-start="url(#ZERO_OR_MORE_START)" marker-end="url(#ZERO_OR_MORE_END)" d="M531.0005416870117,129.19956775309237L549.7035942077637,141.6663064609103C568.4066467285156,154.13304516872824,605.8127517700195,179.06652258436415,631.0262209574381,199.8665946255154C656.2396901448568,220.66666666666666,669.2605234781901,237.33333333333334,675.7709401448568,245.66666666666666L682.2813568115234,254" class="er relationshipLine"/><path style="stroke: gray; fill: none;" marker-start="url(#ZERO_OR_ONE_START)" marker-end="url(#ONLY_ONE_END)" d="M423.68760681152344,254L426.94281514485675,245.66666666666666C430.1980234781901,237.33333333333334,436.70844014485675,220.66666666666666,441.7066945133046,204C446.70494888175244,187.33333333333334,450.19104095198145,170.66666666666666,451.93408698709595,162.33333333333334L453.6771330222105,154" class="er relationshipLine"/><path style="stroke: gray; fill: none;" marker-start="url(#ZERO_OR_ONE_START)" marker-end="url(#ZERO_OR_ONE_END)" d="M472.46067810058594,264.3803125L484.2537078857422,254.31692708333333C496.04673767089844,244.25354166666668,519.6327972412109,224.12677083333332,526.0463659389746,205.73005208333333C532.4599346367382,187.33333333333334,521.7010124619529,170.66666666666666,516.3215513745604,162.33333333333334L510.9420902871678,154" class="er relationshipLine"/><path style="stroke: gray; fill: none;" marker-start="url(#ZERO_OR_ONE_START)" marker-end="url(#ONLY_ONE_END)" d="M743.2188568115234,254L743.2188568115234,245.66666666666666C743.2188568115234,237.33333333333334,743.2188568115234,220.66666666666666,707.8491376241049,197.31394275587294C672.4794184366862,173.96121884507923,601.739980061849,143.9224376901585,566.3702608744303,128.9030471126981L531.0005416870117,113.8836565352377" class="er relationshipLine"/><g transform="translate(20,298 )" id="entity-UserRole-348851bc-4e3e-5e0e-a5b3-6fde704fd893"><rect height="68" width="144.09375" y="0" x="0" class="er entityBox"/><text style="dominant-baseline: middle; text-anchor: middle; font-size: 12px;" transform="translate(72.046875,12)" y="0" x="0" id="text-entity-UserRole-348851bc-4e3e-5e0e-a5b3-6fde704fd893" class="er entityLabel">UserRole</text><rect height="22" width="72.046875" y="24" x="0" class="er attributeBoxOdd"/><text style="dominant-baseline: middle; font-size: 10.2px;" transform="translate(5,35)" y="0" x="0" id="text-entity-UserRole-348851bc-4e3e-5e0e-a5b3-6fde704fd893-attr-1-type" class="er entityLabel">CUSTOMER</text><rect height="22" width="72.046875" y="24" x="72.046875" class="er attributeBoxOdd"/><text style="dominant-baseline: middle; font-size: 10.2px;" transform="translate(77.046875,35)" y="0" x="0" id="text-entity-UserRole-348851bc-4e3e-5e0e-a5b3-6fde704fd893-attr-1-name" class="er entityLabel">CUSTOMER</text><rect height="22" width="72.046875" y="46" x="0" class="er attributeBoxEven"/><text style="dominant-baseline: middle; font-size: 10.2px;" transform="translate(5,57)" y="0" x="0" id="text-entity-UserRole-348851bc-4e3e-5e0e-a5b3-6fde704fd893-attr-2-type" class="er entityLabel">DELIVERYMAN</text><rect height="22" width="72.046875" y="46" x="72.046875" class="er attributeBoxEven"/><text style="dominant-baseline: middle; font-size: 10.2px;" transform="translate(77.046875,57)" y="0" x="0" id="text-entity-UserRole-348851bc-4e3e-5e0e-a5b3-6fde704fd893-attr-2-name" class="er entityLabel">DELIVERYMAN</text></g><g transform="translate(404.3819046020508,20 )" id="entity-users-33ae1e26-be31-5c1d-bf65-e859e9d0308e"><rect height="134" width="126.61863708496094" y="0" x="0" class="er entityBox"/><text style="dominant-baseline: middle; text-anchor: middle; font-size: 12px;" transform="translate(63.30931854248047,12)" y="0" x="0" id="text-entity-users-33ae1e26-be31-5c1d-bf65-e859e9d0308e" class="er entityLabel">users</text><rect height="22" width="50.27552795410156" y="24" x="0" class="er attributeBoxOdd"/><text style="dominant-baseline: middle; font-size: 10.2px;" transform="translate(5,35)" y="0" x="0" id="text-entity-users-33ae1e26-be31-5c1d-bf65-e859e9d0308e-attr-1-type" class="er entityLabel">String</text><rect height="22" width="52.327484130859375" y="24" x="50.27552795410156" class="er attributeBoxOdd"/><text style="dominant-baseline: middle; font-size: 10.2px;" transform="translate(55.27552795410156,35)" y="0" x="0" id="text-entity-users-33ae1e26-be31-5c1d-bf65-e859e9d0308e-attr-1-name" class="er entityLabel">id</text><rect height="22" width="24.015625" y="24" x="102.60301208496094" class="er attributeBoxOdd"/><text style="dominant-baseline: middle; font-size: 10.2px;" transform="translate(107.60301208496094,35)" y="0" x="0" id="text-entity-users-33ae1e26-be31-5c1d-bf65-e859e9d0308e-attr-1-comment" class="er entityLabel">🗝️</text><rect height="22" width="50.27552795410156" y="46" x="0" class="er attributeBoxEven"/><text style="dominant-baseline: middle; font-size: 10.2px;" transform="translate(5,57)" y="0" x="0" id="text-entity-users-33ae1e26-be31-5c1d-bf65-e859e9d0308e-attr-2-type" class="er entityLabel">String</text><rect height="22" width="52.327484130859375" y="46" x="50.27552795410156" class="er attributeBoxEven"/><text style="dominant-baseline: middle; font-size: 10.2px;" transform="translate(55.27552795410156,57)" y="0" x="0" id="text-entity-users-33ae1e26-be31-5c1d-bf65-e859e9d0308e-attr-2-name" class="er entityLabel">name</text><rect height="22" width="24.015625" y="46" x="102.60301208496094" class="er attributeBoxEven"/><text style="dominant-baseline: middle; font-size: 10.2px;" transform="translate(107.60301208496094,57)" y="0" x="0" id="text-entity-users-33ae1e26-be31-5c1d-bf65-e859e9d0308e-attr-2-comment" class="er entityLabel"/><rect height="22" width="50.27552795410156" y="68" x="0" class="er attributeBoxOdd"/><text style="dominant-baseline: middle; font-size: 10.2px;" transform="translate(5,79)" y="0" x="0" id="text-entity-users-33ae1e26-be31-5c1d-bf65-e859e9d0308e-attr-3-type" class="er entityLabel">String</text><rect height="22" width="52.327484130859375" y="68" x="50.27552795410156" class="er attributeBoxOdd"/><text style="dominant-baseline: middle; font-size: 10.2px;" transform="translate(55.27552795410156,79)" y="0" x="0" id="text-entity-users-33ae1e26-be31-5c1d-bf65-e859e9d0308e-attr-3-name" class="er entityLabel">email</text><rect height="22" width="24.015625" y="68" x="102.60301208496094" class="er attributeBoxOdd"/><text style="dominant-baseline: middle; font-size: 10.2px;" transform="translate(107.60301208496094,79)" y="0" x="0" id="text-entity-users-33ae1e26-be31-5c1d-bf65-e859e9d0308e-attr-3-comment" class="er entityLabel"/><rect height="22" width="50.27552795410156" y="90" x="0" class="er attributeBoxEven"/><text style="dominant-baseline: middle; font-size: 10.2px;" transform="translate(5,101)" y="0" x="0" id="text-entity-users-33ae1e26-be31-5c1d-bf65-e859e9d0308e-attr-4-type" class="er entityLabel">String</text><rect height="22" width="52.327484130859375" y="90" x="50.27552795410156" class="er attributeBoxEven"/><text style="dominant-baseline: middle; font-size: 10.2px;" transform="translate(55.27552795410156,101)" y="0" x="0" id="text-entity-users-33ae1e26-be31-5c1d-bf65-e859e9d0308e-attr-4-name" class="er entityLabel">password</text><rect height="22" width="24.015625" y="90" x="102.60301208496094" class="er attributeBoxEven"/><text style="dominant-baseline: middle; font-size: 10.2px;" transform="translate(107.60301208496094,101)" y="0" x="0" id="text-entity-users-33ae1e26-be31-5c1d-bf65-e859e9d0308e-attr-4-comment" class="er entityLabel"/><rect height="22" width="50.27552795410156" y="112" x="0" class="er attributeBoxOdd"/><text style="dominant-baseline: middle; font-size: 10.2px;" transform="translate(5,123)" y="0" x="0" id="text-entity-users-33ae1e26-be31-5c1d-bf65-e859e9d0308e-attr-5-type" class="er entityLabel">UserRole</text><rect height="22" width="52.327484130859375" y="112" x="50.27552795410156" class="er attributeBoxOdd"/><text style="dominant-baseline: middle; font-size: 10.2px;" transform="translate(55.27552795410156,123)" y="0" x="0" id="text-entity-users-33ae1e26-be31-5c1d-bf65-e859e9d0308e-attr-5-name" class="er entityLabel">role</text><rect height="22" width="24.015625" y="112" x="102.60301208496094" class="er attributeBoxOdd"/><text style="dominant-baseline: middle; font-size: 10.2px;" transform="translate(107.60301208496094,123)" y="0" x="0" id="text-entity-users-33ae1e26-be31-5c1d-bf65-e859e9d0308e-attr-5-comment" class="er entityLabel"/></g><g transform="translate(313.97703552246094,254 )" id="entity-deliveries-4ea4d0e8-ec78-5129-bf8e-92362cb723ff"><rect height="156" width="158.483642578125" y="0" x="0" class="er entityBox"/><text style="dominant-baseline: middle; text-anchor: middle; font-size: 12px;" transform="translate(79.2418212890625,12)" y="0" x="0" id="text-entity-deliveries-4ea4d0e8-ec78-5129-bf8e-92362cb723ff" class="er entityLabel">deliveries</text><rect height="22" width="54.095550537109375" y="24" x="0" class="er attributeBoxOdd"/><text style="dominant-baseline: middle; font-size: 10.2px;" transform="translate(5,35)" y="0" x="0" id="text-entity-deliveries-4ea4d0e8-ec78-5129-bf8e-92362cb723ff-attr-1-type" class="er entityLabel">String</text><rect height="22" width="80.37246704101562" y="24" x="54.095550537109375" class="er attributeBoxOdd"/><text style="dominant-baseline: middle; font-size: 10.2px;" transform="translate(59.095550537109375,35)" y="0" x="0" id="text-entity-deliveries-4ea4d0e8-ec78-5129-bf8e-92362cb723ff-attr-1-name" class="er entityLabel">id</text><rect height="22" width="24.015625" y="24" x="134.468017578125" class="er attributeBoxOdd"/><text style="dominant-baseline: middle; font-size: 10.2px;" transform="translate(139.468017578125,35)" y="0" x="0" id="text-entity-deliveries-4ea4d0e8-ec78-5129-bf8e-92362cb723ff-attr-1-comment" class="er entityLabel">🗝️</text><rect height="22" width="54.095550537109375" y="46" x="0" class="er attributeBoxEven"/><text style="dominant-baseline: middle; font-size: 10.2px;" transform="translate(5,57)" y="0" x="0" id="text-entity-deliveries-4ea4d0e8-ec78-5129-bf8e-92362cb723ff-attr-2-type" class="er entityLabel">String</text><rect height="22" width="80.37246704101562" y="46" x="54.095550537109375" class="er attributeBoxEven"/><text style="dominant-baseline: middle; font-size: 10.2px;" transform="translate(59.095550537109375,57)" y="0" x="0" id="text-entity-deliveries-4ea4d0e8-ec78-5129-bf8e-92362cb723ff-attr-2-name" class="er entityLabel">owner_id</text><rect height="22" width="24.015625" y="46" x="134.468017578125" class="er attributeBoxEven"/><text style="dominant-baseline: middle; font-size: 10.2px;" transform="translate(139.468017578125,57)" y="0" x="0" id="text-entity-deliveries-4ea4d0e8-ec78-5129-bf8e-92362cb723ff-attr-2-comment" class="er entityLabel"/><rect height="22" width="54.095550537109375" y="68" x="0" class="er attributeBoxOdd"/><text style="dominant-baseline: middle; font-size: 10.2px;" transform="translate(5,79)" y="0" x="0" id="text-entity-deliveries-4ea4d0e8-ec78-5129-bf8e-92362cb723ff-attr-3-type" class="er entityLabel">String</text><rect height="22" width="80.37246704101562" y="68" x="54.095550537109375" class="er attributeBoxOdd"/><text style="dominant-baseline: middle; font-size: 10.2px;" transform="translate(59.095550537109375,79)" y="0" x="0" id="text-entity-deliveries-4ea4d0e8-ec78-5129-bf8e-92362cb723ff-attr-3-name" class="er entityLabel">deliveryman_id</text><rect height="22" width="24.015625" y="68" x="134.468017578125" class="er attributeBoxOdd"/><text style="dominant-baseline: middle; font-size: 10.2px;" transform="translate(139.468017578125,79)" y="0" x="0" id="text-entity-deliveries-4ea4d0e8-ec78-5129-bf8e-92362cb723ff-attr-3-comment" class="er entityLabel">❓</text><rect height="22" width="54.095550537109375" y="90" x="0" class="er attributeBoxEven"/><text style="dominant-baseline: middle; font-size: 10.2px;" transform="translate(5,101)" y="0" x="0" id="text-entity-deliveries-4ea4d0e8-ec78-5129-bf8e-92362cb723ff-attr-4-type" class="er entityLabel">String</text><rect height="22" width="80.37246704101562" y="90" x="54.095550537109375" class="er attributeBoxEven"/><text style="dominant-baseline: middle; font-size: 10.2px;" transform="translate(59.095550537109375,101)" y="0" x="0" id="text-entity-deliveries-4ea4d0e8-ec78-5129-bf8e-92362cb723ff-attr-4-name" class="er entityLabel">item_name</text><rect height="22" width="24.015625" y="90" x="134.468017578125" class="er attributeBoxEven"/><text style="dominant-baseline: middle; font-size: 10.2px;" transform="translate(139.468017578125,101)" y="0" x="0" id="text-entity-deliveries-4ea4d0e8-ec78-5129-bf8e-92362cb723ff-attr-4-comment" class="er entityLabel"/><rect height="22" width="54.095550537109375" y="112" x="0" class="er attributeBoxOdd"/><text style="dominant-baseline: middle; font-size: 10.2px;" transform="translate(5,123)" y="0" x="0" id="text-entity-deliveries-4ea4d0e8-ec78-5129-bf8e-92362cb723ff-attr-5-type" class="er entityLabel">DateTime</text><rect height="22" width="80.37246704101562" y="112" x="54.095550537109375" class="er attributeBoxOdd"/><text style="dominant-baseline: middle; font-size: 10.2px;" transform="translate(59.095550537109375,123)" y="0" x="0" id="text-entity-deliveries-4ea4d0e8-ec78-5129-bf8e-92362cb723ff-attr-5-name" class="er entityLabel">created_at</text><rect height="22" width="24.015625" y="112" x="134.468017578125" class="er attributeBoxOdd"/><text style="dominant-baseline: middle; font-size: 10.2px;" transform="translate(139.468017578125,123)" y="0" x="0" id="text-entity-deliveries-4ea4d0e8-ec78-5129-bf8e-92362cb723ff-attr-5-comment" class="er entityLabel"/><rect height="22" width="54.095550537109375" y="134" x="0" class="er attributeBoxEven"/><text style="dominant-baseline: middle; font-size: 10.2px;" transform="translate(5,145)" y="0" x="0" id="text-entity-deliveries-4ea4d0e8-ec78-5129-bf8e-92362cb723ff-attr-6-type" class="er entityLabel">DateTime</text><rect height="22" width="80.37246704101562" y="134" x="54.095550537109375" class="er attributeBoxEven"/><text style="dominant-baseline: middle; font-size: 10.2px;" transform="translate(59.095550537109375,145)" y="0" x="0" id="text-entity-deliveries-4ea4d0e8-ec78-5129-bf8e-92362cb723ff-attr-6-name" class="er entityLabel">end_at</text><rect height="22" width="24.015625" y="134" x="134.468017578125" class="er attributeBoxEven"/><text style="dominant-baseline: middle; font-size: 10.2px;" transform="translate(139.468017578125,145)" y="0" x="0" id="text-entity-deliveries-4ea4d0e8-ec78-5129-bf8e-92362cb723ff-attr-6-comment" class="er entityLabel">❓</text></g><g transform="translate(671.4054107666016,254 )" id="entity-notifications-1d6ba21a-15e0-5075-aad1-78bdfa7a7cea"><rect height="156" width="143.62689208984375" y="0" x="0" class="er entityBox"/><text style="dominant-baseline: middle; text-anchor: middle; font-size: 12px;" transform="translate(71.81344604492188,12)" y="0" x="0" id="text-entity-notifications-1d6ba21a-15e0-5075-aad1-78bdfa7a7cea" class="er entityLabel">notifications</text><rect height="22" width="54.095550537109375" y="24" x="0" class="er attributeBoxOdd"/><text style="dominant-baseline: middle; font-size: 10.2px;" transform="translate(5,35)" y="0" x="0" id="text-entity-notifications-1d6ba21a-15e0-5075-aad1-78bdfa7a7cea-attr-1-type" class="er entityLabel">String</text><rect height="22" width="65.51571655273438" y="24" x="54.095550537109375" class="er attributeBoxOdd"/><text style="dominant-baseline: middle; font-size: 10.2px;" transform="translate(59.095550537109375,35)" y="0" x="0" id="text-entity-notifications-1d6ba21a-15e0-5075-aad1-78bdfa7a7cea-attr-1-name" class="er entityLabel">id</text><rect height="22" width="24.015625" y="24" x="119.61126708984375" class="er attributeBoxOdd"/><text style="dominant-baseline: middle; font-size: 10.2px;" transform="translate(124.61126708984375,35)" y="0" x="0" id="text-entity-notifications-1d6ba21a-15e0-5075-aad1-78bdfa7a7cea-attr-1-comment" class="er entityLabel">🗝️</text><rect height="22" width="54.095550537109375" y="46" x="0" class="er attributeBoxEven"/><text style="dominant-baseline: middle; font-size: 10.2px;" transform="translate(5,57)" y="0" x="0" id="text-entity-notifications-1d6ba21a-15e0-5075-aad1-78bdfa7a7cea-attr-2-type" class="er entityLabel">String</text><rect height="22" width="65.51571655273438" y="46" x="54.095550537109375" class="er attributeBoxEven"/><text style="dominant-baseline: middle; font-size: 10.2px;" transform="translate(59.095550537109375,57)" y="0" x="0" id="text-entity-notifications-1d6ba21a-15e0-5075-aad1-78bdfa7a7cea-attr-2-name" class="er entityLabel">recipient_id</text><rect height="22" width="24.015625" y="46" x="119.61126708984375" class="er attributeBoxEven"/><text style="dominant-baseline: middle; font-size: 10.2px;" transform="translate(124.61126708984375,57)" y="0" x="0" id="text-entity-notifications-1d6ba21a-15e0-5075-aad1-78bdfa7a7cea-attr-2-comment" class="er entityLabel"/><rect height="22" width="54.095550537109375" y="68" x="0" class="er attributeBoxOdd"/><text style="dominant-baseline: middle; font-size: 10.2px;" transform="translate(5,79)" y="0" x="0" id="text-entity-notifications-1d6ba21a-15e0-5075-aad1-78bdfa7a7cea-attr-3-type" class="er entityLabel">String</text><rect height="22" width="65.51571655273438" y="68" x="54.095550537109375" class="er attributeBoxOdd"/><text style="dominant-baseline: middle; font-size: 10.2px;" transform="translate(59.095550537109375,79)" y="0" x="0" id="text-entity-notifications-1d6ba21a-15e0-5075-aad1-78bdfa7a7cea-attr-3-name" class="er entityLabel">title</text><rect height="22" width="24.015625" y="68" x="119.61126708984375" class="er attributeBoxOdd"/><text style="dominant-baseline: middle; font-size: 10.2px;" transform="translate(124.61126708984375,79)" y="0" x="0" id="text-entity-notifications-1d6ba21a-15e0-5075-aad1-78bdfa7a7cea-attr-3-comment" class="er entityLabel"/><rect height="22" width="54.095550537109375" y="90" x="0" class="er attributeBoxEven"/><text style="dominant-baseline: middle; font-size: 10.2px;" transform="translate(5,101)" y="0" x="0" id="text-entity-notifications-1d6ba21a-15e0-5075-aad1-78bdfa7a7cea-attr-4-type" class="er entityLabel">String</text><rect height="22" width="65.51571655273438" y="90" x="54.095550537109375" class="er attributeBoxEven"/><text style="dominant-baseline: middle; font-size: 10.2px;" transform="translate(59.095550537109375,101)" y="0" x="0" id="text-entity-notifications-1d6ba21a-15e0-5075-aad1-78bdfa7a7cea-attr-4-name" class="er entityLabel">content</text><rect height="22" width="24.015625" y="90" x="119.61126708984375" class="er attributeBoxEven"/><text style="dominant-baseline: middle; font-size: 10.2px;" transform="translate(124.61126708984375,101)" y="0" x="0" id="text-entity-notifications-1d6ba21a-15e0-5075-aad1-78bdfa7a7cea-attr-4-comment" class="er entityLabel"/><rect height="22" width="54.095550537109375" y="112" x="0" class="er attributeBoxOdd"/><text style="dominant-baseline: middle; font-size: 10.2px;" transform="translate(5,123)" y="0" x="0" id="text-entity-notifications-1d6ba21a-15e0-5075-aad1-78bdfa7a7cea-attr-5-type" class="er entityLabel">DateTime</text><rect height="22" width="65.51571655273438" y="112" x="54.095550537109375" class="er attributeBoxOdd"/><text style="dominant-baseline: middle; font-size: 10.2px;" transform="translate(59.095550537109375,123)" y="0" x="0" id="text-entity-notifications-1d6ba21a-15e0-5075-aad1-78bdfa7a7cea-attr-5-name" class="er entityLabel">read_at</text><rect height="22" width="24.015625" y="112" x="119.61126708984375" class="er attributeBoxOdd"/><text style="dominant-baseline: middle; font-size: 10.2px;" transform="translate(124.61126708984375,123)" y="0" x="0" id="text-entity-notifications-1d6ba21a-15e0-5075-aad1-78bdfa7a7cea-attr-5-comment" class="er entityLabel">❓</text><rect height="22" width="54.095550537109375" y="134" x="0" class="er attributeBoxEven"/><text style="dominant-baseline: middle; font-size: 10.2px;" transform="translate(5,145)" y="0" x="0" id="text-entity-notifications-1d6ba21a-15e0-5075-aad1-78bdfa7a7cea-attr-6-type" class="er entityLabel">DateTime</text><rect height="22" width="65.51571655273438" y="134" x="54.095550537109375" class="er attributeBoxEven"/><text style="dominant-baseline: middle; font-size: 10.2px;" transform="translate(59.095550537109375,145)" y="0" x="0" id="text-entity-notifications-1d6ba21a-15e0-5075-aad1-78bdfa7a7cea-attr-6-name" class="er entityLabel">created_at</text><rect height="22" width="24.015625" y="134" x="119.61126708984375" class="er attributeBoxEven"/><text style="dominant-baseline: middle; font-size: 10.2px;" transform="translate(124.61126708984375,145)" y="0" x="0" id="text-entity-notifications-1d6ba21a-15e0-5075-aad1-78bdfa7a7cea-attr-6-comment" class="er entityLabel"/></g><rect height="14" width="55.66796875" y="161.79176330566406" x="189.8995361328125" class="er relationshipLabelBox"/><text style="text-anchor: middle; dominant-baseline: middle; font-size: 12px;" y="168.79176330566406" x="217.7335205078125" id="rel1" class="er relationshipLabel">enum:role</text><rect height="14" width="29.685546875" y="169.4403533935547" x="291.0889587402344" class="er relationshipLabelBox"/><text style="text-anchor: middle; dominant-baseline: middle; font-size: 12px;" y="176.4403533935547" x="305.9317321777344" id="rel2" class="er relationshipLabel">items</text><rect height="14" width="52.244140625" y="186.27130126953125" x="335.30889892578125" class="er relationshipLabelBox"/><text style="text-anchor: middle; dominant-baseline: middle; font-size: 12px;" y="193.27130126953125" x="361.43096923828125" id="rel3" class="er relationshipLabel">deliveries</text><rect height="14" width="67.455078125" y="178.16159057617188" x="578.4766235351562" class="er relationshipLabelBox"/><text style="text-anchor: middle; dominant-baseline: middle; font-size: 12px;" y="185.16159057617188" x="612.2041625976562" id="rel4" class="er relationshipLabel">notifications</text><rect height="14" width="34.470703125" y="197.8297576904297" x="424.22119140625" class="er relationshipLabelBox"/><text style="text-anchor: middle; dominant-baseline: middle; font-size: 12px;" y="204.8297576904297" x="441.45654296875" id="rel5" class="er relationshipLabel">owner</text><rect height="14" width="66.4609375" y="209.46929931640625" x="487.40472412109375" class="er relationshipLabelBox"/><text style="text-anchor: middle; dominant-baseline: middle; font-size: 12px;" y="216.46929931640625" x="520.6351928710938" id="rel6" class="er relationshipLabel">deliveryman</text><rect height="14" width="48.78125" y="160.53811645507812" x="628.7029418945312" class="er relationshipLabelBox"/><text style="text-anchor: middle; dominant-baseline: middle; font-size: 12px;" y="167.53811645507812" x="653.0935668945312" id="rel7" class="er relationshipLabel">recipient</text></svg>